<svg width="253" height="41" xmlns="http://www.w3.org/2000/svg">

 <g>
  <title>background</title>
  <rect fill="none" id="canvas_background" height="402" width="582" y="-1" x="-1"/>
 </g>
 <g>
  <title>Layer 1</title>
  <path id="svg_1" fill="white" d="m72.2728,25.9481l0,-5.404l9.464,0l0,-2.996l-9.464,0l0,-5.096l10.668,0l0,-3.05198l-14.308,0l0,19.59998l14.7,0l0,-3.052l-11.06,0z"/>
  <path id="svg_2" fill="white" d="m87.0546,29.0001l3.5,0l0,-20.77598l-3.5,0l0,20.77598z"/>
  <path id="svg_3" fill="white" d="m100.86,13.8801c-2.4076,0 -4.7316,0.616 -6.3276,1.848l1.372,2.548c1.12,-0.924 2.856,-1.484 4.5356,-1.484c2.492,0 3.724,1.204 3.724,3.248l0,0.224l-3.864,0c-4.5356,0 -6.2156,1.96 -6.2156,4.452c0,2.604 2.156,4.48 5.572,4.48c2.2396,0 3.8636,-0.728 4.7036,-2.016l0,1.82l3.304,0l0,-8.764c0,-4.312 -2.492,-6.356 -6.804,-6.356zm-0.476,12.768c-1.7916,0 -2.8556,-0.812 -2.8556,-2.072c0,-1.092 0.644,-1.988 3.0236,-1.988l3.612,0l0,1.736c-0.588,1.54 -2.072,2.324 -3.78,2.324z"/>
  <path id="svg_4" fill="white" d="m116.776,29.1961c4.2,0 6.776,-1.82 6.776,-4.62c0,-5.852 -9.24,-3.164 -9.24,-6.188c0,-0.98 1.008,-1.68 3.136,-1.68c1.428,0 2.856,0.28 4.284,1.12l1.344,-2.66c-1.344,-0.812 -3.612,-1.288 -5.6,-1.288c-4.032,0 -6.58,1.848 -6.58,4.676c0,5.964 9.24,3.276 9.24,6.132c0,1.036 -0.924,1.652 -3.136,1.652c-1.876,0 -3.892,-0.616 -5.208,-1.484l-1.344,2.66c1.344,0.952 3.836,1.68 6.328,1.68z"/>
  <path id="svg_5" fill="white" d="m134.574,25.6961c-0.532,0.42 -1.232,0.616 -1.96,0.616c-1.344,0 -2.072,-0.784 -2.072,-2.24l0,-7.112l4.004,0l0,-2.8l-4.004,0l0,-3.416l-3.5,0l0,3.416l-2.464,0l0,2.8l2.464,0l0,7.196c0,3.304 1.876,5.04 5.152,5.04c1.26,0 2.52,-0.336 3.36,-1.008l-0.98,-2.492z"/>
  <path id="svg_6" fill="white" d="m144.661,29.1961c4.648,0 7.98,-3.192 7.98,-7.672c0,-4.48 -3.332,-7.644 -7.98,-7.644c-4.592,0 -7.952,3.164 -7.952,7.644c0,4.48 3.36,7.672 7.952,7.672zm0,-2.996c-2.52,0 -4.424,-1.82 -4.424,-4.676c0,-2.856 1.904,-4.676 4.424,-4.676c2.548,0 4.452,1.82 4.452,4.676c0,2.856 -1.904,4.676 -4.452,4.676z"/>
  <path id="svg_7" fill="white" d="m160.608,29.1961c4.2,0 6.776,-1.82 6.776,-4.62c0,-5.852 -9.24,-3.164 -9.24,-6.188c0,-0.98 1.008,-1.68 3.136,-1.68c1.428,0 2.856,0.28 4.284,1.12l1.344,-2.66c-1.344,-0.812 -3.612,-1.288 -5.6,-1.288c-4.032,0 -6.58,1.848 -6.58,4.676c0,5.964 9.24,3.276 9.24,6.132c0,1.036 -0.924,1.652 -3.136,1.652c-1.876,0 -3.892,-0.616 -5.208,-1.484l-1.344,2.66c1.344,0.952 3.836,1.68 6.328,1.68z"/>
  <path id="svg_8" fill="white" d="m186.519,34.4321l0,-26.20798l2.492,0l0,26.20798l-2.492,0z"/>
  <path id="svg_11" fill="white" d="m24.4796,21.3844l12.2398,-7.118l12.2398,-7.15453l-12.2398,-7.11187l-12.2398,7.11187l-12.2398,-7.11187l-12.2398,7.11187l12.2398,7.15453l12.2398,7.118z"/>
  <path id="svg_12" fill="white" d="m36.7194,19.6216l-12.2398,7.1119l-12.2398,-7.1119l-12.2398,7.1119l12.2398,7.1545l12.2398,7.1119l12.2398,-7.1119l12.2398,-7.1545l-12.2398,-7.1119z"/>
  <text xml:space="preserve" text-anchor="start" font-family="Helvetica, Arial, sans-serif" font-size="24" id="svg_13" y="27.570316" x="209.568193" stroke-opacity="null" stroke-width="0" stroke="null" fill="#ffffff">E</text>
  <text xml:space="preserve" text-anchor="start" font-family="Helvetica, Arial, sans-serif" font-size="24" id="svg_14" y="27.343043" x="230.022739" stroke-opacity="null" stroke-width="0" stroke="null" fill="#ffffff">F</text>
 </g>
</svg>